<?xml version="1.0" encoding="UTF-8" standalone="no"?>
<!-- Created with Inkscape (http://www.inkscape.org/) -->

<svg
   width="210mm"
   height="297mm"
   viewBox="0 0 210 297"
   version="1.1"
   id="svg5"
   inkscape:version="1.1.2 (b8e25be833, 2022-02-05)"
   sodipodi:docname="logo-1.svg"
   xmlns:inkscape="http://www.inkscape.org/namespaces/inkscape"
   xmlns:sodipodi="http://sodipodi.sourceforge.net/DTD/sodipodi-0.dtd"
   xmlns="http://www.w3.org/2000/svg"
   xmlns:svg="http://www.w3.org/2000/svg">
  <sodipodi:namedview
     id="namedview7"
     pagecolor="#ffffff"
     bordercolor="#666666"
     borderopacity="1.0"
     inkscape:pageshadow="2"
     inkscape:pageopacity="0.0"
     inkscape:pagecheckerboard="0"
     inkscape:document-units="mm"
     showgrid="false"
     inkscape:zoom="0.3701494"
     inkscape:cx="1533.1647"
     inkscape:cy="461.97562"
     inkscape:window-width="1920"
     inkscape:window-height="1017"
     inkscape:window-x="-8"
     inkscape:window-y="-8"
     inkscape:window-maximized="1"
     inkscape:current-layer="layer1" />
  <defs
     id="defs2" />
  <g
     inkscape:label="Warstwa 1"
     inkscape:groupmode="layer"
     id="layer1">
    <path
       style="fill:#d59928;fill-opacity:1;stroke:none;stroke-width:0.1787"
       d="m 23.539712,130.60942 c 0.428268,-7.56273 7.099961,-19.29696 15.937325,-28.0307 2.582061,-2.55179 7.479313,-6.541967 7.726164,-6.295119 0.03815,0.03815 -0.305356,0.648626 -0.763347,1.356609 -1.88912,2.92028 -2.774016,5.60774 -2.779974,8.44284 -0.0049,2.33135 0.194521,2.65463 0.728665,1.18126 0.624043,-1.72137 2.194734,-4.75649 3.08253,-5.95654 2.288083,-3.092816 5.172716,-4.916036 9.491922,-5.999325 0.858666,-0.215358 1.60329,-0.349483 1.65472,-0.298051 0.05143,0.05143 -0.84065,1.960478 -1.982404,4.242327 -1.141751,2.281849 -2.038805,4.185929 -1.99345,4.231279 0.154395,0.15439 1.596091,-0.68896 4.3883,-2.56703 2.934906,-1.974058 6.527474,-3.8556 8.773924,-4.595184 2.776824,-0.914199 8.689663,-1.720736 8.994849,-1.226937 0.06071,0.09823 -1.539671,2.252591 -3.556407,4.787459 -3.534974,4.443172 -3.963453,5.146672 -2.936065,4.820592 0.21667,-0.0688 1.577715,-1.27197 3.024542,-2.67379 2.728558,-2.643679 4.383852,-3.97007 6.557912,-5.254871 3.532211,-2.087427 7.871116,-3.245641 12.12438,-3.236441 1.379215,0.003 5.39954,0.417536 5.554779,0.572778 0.02836,0.02835 -1.63888,2.098979 -3.704974,4.601387 -2.066091,2.502407 -3.666138,4.579957 -3.555653,4.616787 0.110482,0.0368 0.841327,-0.57781 1.624105,-1.36586 3.907091,-3.933433 9.037485,-6.551107 14.797455,-7.550097 1.59062,-0.275873 2.83038,-0.358685 5.21406,-0.348287 1.72,0.0075 3.43739,0.07221 3.81642,0.143799 l 0.68917,0.130156 -5.55875,4.610706 c -4.79986,3.981253 -6.01549,5.128463 -5.43428,5.128463 0.0684,0 2.09894,-1.03569 4.51218,-2.30152 5.0334,-2.640219 7.30547,-3.658674 10.17422,-4.560609 3.64368,-1.145575 8.08251,-1.788692 11.60956,-1.682049 l 1.84914,0.05591 -3.85951,3.453206 c -3.2777,2.932642 -4.25721,3.962862 -3.76778,3.962862 0.0505,0 1.21477,-0.5626 2.58739,-1.25022 4.34584,-2.177059 6.36832,-2.900903 9.74055,-3.486119 1.96151,-0.340403 8.02485,-0.675585 8.73345,-0.482786 l 0.51323,0.139642 -0.95998,0.725641 c -1.12076,0.847167 -7.30385,7.245122 -7.30385,7.557662 0,0.11777 0.49695,-0.0741 1.11688,-0.43129 9.6042,-5.53329 17.53789,-6.669682 25.08442,-3.593 6.38654,2.60377 12.46966,8.7501 17.55844,17.74087 0.89353,1.57869 3.10443,7.98416 3.10443,8.21086 0,0.0606 -0.34818,0.11017 -0.77373,0.11017 h -0.77373 l -1.17958,-2.03272 c -2.37795,-4.09783 -5.72815,-8.39719 -9.02251,-11.04424 -9.24208,-7.42611 -20.58403,-9.84542 -33.59567,-7.16616 -5.3175,1.09494 -11.23857,3.25612 -17.48695,6.38271 -1.26358,0.63227 -2.34552,1.10149 -2.40431,1.0427 -0.0588,-0.0588 1.81878,-2.03382 4.17238,-4.38896 l 4.27927,-4.28206 h -3.07204 c -1.71263,0 -3.98346,0.11948 -5.13173,0.27001 -4.78739,0.62757 -9.45141,2.42176 -12.66875,4.70246 -0.51415,0.36447 -0.88229,0.48456 -0.99666,0.42942 -0.0426,-0.0205 0.89808,-1.54387 2.03623,-3.43618 1.13815,-1.89231 2.02361,-3.48632 1.96769,-3.54224 -0.19276,-0.19276 -4.50861,0.33606 -6.3176,0.77408 -2.96973,0.71908 -6.837637,2.38996 -9.11531,3.93768 -0.347486,0.23612 -0.65727,0.40383 -0.688412,0.37269 -0.03114,-0.0311 0.595466,-1.25534 1.39246,-2.72045 0.796999,-1.4651 1.570384,-2.89767 1.718638,-3.18349 l 0.269555,-0.51967 -2.118926,0.10876 c -4.431591,0.22748 -9.272677,3.22181 -13.675017,5.73779 -0.699393,0.39971 -1.635985,1.10995 -2.367055,1.67322 l -0.272953,-2.62762 c -0.159649,-1.53687 0.294064,-2.16149 0.460583,-2.66235 0.244644,-0.73583 1.793368,-1.81131 1.372342,-1.91698 -0.248079,-0.0623 -1.383416,-0.0648 -2.596678,-0.0459 -3.592991,0.0559 -6.359831,1.33161 -9.102841,3.60745 -1.230146,1.02064 -3.023565,2.9963 -3.840477,4.23073 -0.25758,0.38923 -0.510072,0.7077 -0.561089,0.7077 -0.187409,0 0.15957,-3.73263 0.564798,-6.07582 0.229463,-1.32685 0.398844,-2.43576 0.376402,-2.46424 -0.141849,-0.18003 -2.744039,0.57295 -3.769212,1.09068 -2.526067,1.2757 -5.848143,4.11931 -9.187018,7.12025 -0.779859,0.70093 -1.672027,0.66182 -1.721268,0.98687 -0.0059,0.0389 -1.818209,1.85813 -1.681294,0.29144 0.13692,-1.56669 2.101545,-6.06614 2.068538,-6.09914 -0.03301,-0.033 -1.367354,0.72514 -2.965215,1.68476 -6.965288,4.18313 -11.148782,7.84034 -13.562435,11.85629 -0.852287,1.41807 -1.662402,4.12103 -1.662402,4.79639 0,0.24851 -0.65461,0.5638 -1.539866,1.0096 -2.159863,1.0877 -5.943717,3.34033 -9.027587,5.3744 l -0.520279,0.34318 z"
       id="path21611"
       sodipodi:nodetypes="sssssssssssssssssssssssssscssssscssssscsscsssscsssssscssssssssssscsscssssssssssssssssssscs" />
    <path
       style="fill:#f5ad1b;fill-opacity:1;stroke:none;stroke-width:0.1787"
       d="m 180.02848,127.99558 c -0.44229,-0.0301 -2.33204,-0.13733 -4.19946,-0.23819 -19.60961,-1.05907 -50.21658,-3.20064 -57.63087,-4.03243 -3.67721,-0.41254 -6.92126,-0.8647 -17.24458,-2.4036 -16.307936,-2.43102 -19.430726,-2.78287 -27.299241,-3.07587 -6.639282,-0.24724 -11.642299,-0.0489 -16.393004,0.64994 -7.568268,1.11327 -14.983842,3.07187 -21.399319,6.3628 -1.984045,1.01775 -2.091935,1.10835 -1.291062,-1.11681 1.641582,-4.56099 6.001838,-10.14752 14.0892,-14.50097 l 4.06422,-2.18779 -1.131368,3.03814 c -0.371636,0.99798 -0.644769,2.85502 -0.706404,3.48065 l 1.467442,-0.7579 c 2.123806,-1.85657 1.791905,-1.46167 3.629447,-3.06765 3.12071,-2.82339 5.119378,-3.86793 7.555897,-5.21872 1.066311,-0.59116 3.459363,-0.92636 3.590935,-0.79479 0.0448,0.0448 -0.38804,2.55196 -0.575782,3.8726 -0.425759,2.99498 -0.15191,2.95809 -0.501062,3.83114 5.072151,-6.48962 10.267632,-8.28655 17.679848,-8.56599 -0.283752,2.21933 -3.111444,5.58669 -2.935733,7.68745 0.0963,0 1.677561,-1.0839 2.749471,-1.78072 2.605727,-1.69394 5.095493,-2.49788 7.31349,-3.92035 1.809866,-1.16071 7.095814,-1.52475 7.879347,-1.39312 0.30146,0.0506 -1.182825,2.34719 -2.649865,5.08381 -1.524186,2.84323 -2.522308,3.48213 -2.401536,3.08258 0.351101,-1.16155 1.310222,-1.74572 1.908009,-2.13209 4.72425,-3.05342 7.69409,-3.89125 13.24117,-4.60541 0.90552,-0.11658 1.80186,-0.19646 2.66307,-0.1358 -0.051,0.33215 -0.30109,0.70897 -0.50803,1.06345 0,0 -0.76475,1.51702 -1.77351,3.22968 -1.67669,2.84664 -1.93062,2.69197 -1.52921,2.69197 0.0808,0 0.43985,-0.19046 1.41559,-0.88656 7.84364,-4.695 12.20228,-4.54491 20.25799,-4.4969 l -4.69154,4.73332 c -1.92309,1.94021 -3.12767,3.23953 -3.48972,3.65752 -0.64237,0.74164 -0.55053,0.27334 -0.13512,0.27334 0.11398,0 0.69467,-0.32274 2.64178,-1.25775 9.11144,-4.37532 15.94103,-6.4473 23.04441,-7.10503 8.65503,-0.80141 15.54566,0.59837 22.31986,4.48267 3.52936,2.02372 7.40986,4.61829 10.2333,8.11755 1.33764,1.65781 5.05309,8.00102 5.05309,8.2117 0,0.10954 -2.6753,0.23564 -4.31115,0.12444 z"
       id="path43481"
       sodipodi:nodetypes="ccssssssscssccssscccsssssssccssccsssssssscc" />
    <path
       style="fill:#fceaac;fill-opacity:1;stroke:none;stroke-width:0.1787"
       d="m 26.43773,173.81102 c -2.472942,-2.69215 -2.752982,-3.57382 -1.688116,-5.31486 1.532739,-2.50602 2.716406,-5.41794 3.414072,-8.39892 0.288661,-1.23337 0.333764,-2.16547 0.328605,-6.79061 -0.0058,-5.18715 -0.02154,-5.42613 -0.485405,-7.36873 -1.090501,-4.56678 -2.393669,-8.32308 -3.99845,-11.52527 -0.430004,-0.85803 -0.781825,-1.63504 -0.781825,-1.72668 0,-0.0917 1.26654,-0.96365 2.81453,-1.93778 4.529309,-2.85022 7.777882,-4.61914 11.8389,-6.44653 12.891593,-5.80101 25.051766,-7.66762 41.458483,-6.36397 4.930714,0.39179 6.677414,0.61498 22.248206,2.84289 14.09853,2.01725 18.0632,2.51401 24.21389,3.03395 7.00628,0.59227 31.22824,2.24574 44.85379,3.06188 4.3737,0.26196 8.1164,0.53781 8.31711,0.61298 0.30595,0.11459 0.50301,0.71296 1.21893,3.70125 2.06003,8.59871 2.34881,10.70729 2.34365,17.11239 -0.004,5.31381 -0.13647,6.24242 -1.32866,9.33388 -2.86551,7.4305 -10.50032,10.66487 -23.38851,9.90818 -7.70065,-0.45212 -10.98358,-1.00075 -32.82046,-5.48478 -26.409383,-5.42295 -32.240518,-6.33145 -44.228344,-6.89087 -10.236322,-0.47768 -19.508661,0.62934 -27.049026,3.22937 -3.868407,1.33388 -4.678741,1.83107 -17.892588,10.97805 -4.225422,2.92495 -7.817482,5.39028 -7.982352,5.47852 -0.237212,0.12695 -0.530688,-0.091 -1.40643,-1.04434 z"
       id="path43779" />
    <path
       style="fill:#fcdf7d;fill-opacity:1;stroke:none;stroke-width:0.1787"
       d="m 165.32985,175.18608 c -5.58691,-0.50484 -12.10058,-1.54826 -26.03171,-4.16999 -28.83018,-5.42561 -36.61888,-6.4951 -51.619882,-7.08811 -14.81898,-0.58581 -29.88456,1.27897 -42.435038,5.2525 -3.690308,1.16837 -5.068419,1.76824 -7.699851,3.3516 -1.304925,0.7852 -2.902918,1.67579 -3.551097,1.97912 -1.138542,0.53278 -1.247759,0.54929 -3.22076,0.48665 -1.173125,-0.0372 -2.126877,-0.14945 -2.2411,-0.26367 -0.253156,-0.25315 1.089427,-1.26072 9.743493,-7.31219 10.025095,-7.01017 11.476985,-7.89538 14.935095,-9.10582 12.461838,-4.36203 28.418028,-4.47309 50.82663,-0.35376 4.72593,0.86875 11.22374,2.17176 24.48195,4.90938 10.22001,2.11028 16.06884,3.19972 20.85865,3.88527 3.31551,0.47454 3.71917,0.49295 10.77131,0.4912 l 7.32672,-0.002 2.05634,-0.55529 c 3.90293,-1.05393 6.32088,-2.34273 8.55748,-4.56125 2.02987,-2.01346 3.06402,-4.32947 4.1368,-7.94791 0.35532,-1.19847 0.14664,-1.54 0.21917,-6.42147 0.0888,-5.97851 -0.11566,-6.46293 -1.26457,-12.19636 -0.57069,-2.84795 -1.94659,-7.46895 -2.17682,-8.06894 0,0 6.44711,0.43909 6.40118,0.4282 0.17473,0.18164 0.87141,-0.62883 1.79108,3.09605 1.98768,8.05048 2.91643,12.75503 3.25886,16.50749 0.1118,1.22509 0.16049,4.58021 0.11689,8.05283 -0.0821,6.53595 -0.10405,6.69024 -1.40136,9.83624 -1.52259,3.69233 -4.29522,6.54216 -7.7805,7.99715 -1.5894,0.66352 -4.42048,1.38774 -6.26105,1.60165 -2.16725,0.25186 -7.81362,0.35056 -9.79787,0.17126 z"
       id="path43929-1"
       sodipodi:nodetypes="cssssscssssssccsssssccsssssscc" />
    <circle
       style="fill:#000000;fill-opacity:1;stroke:none;stroke-width:0.264583"
       id="path44863"
       cx="41.267086"
       cy="137.4946"
       r="2.8592057" />
    <path
       style="fill:#fceaac;fill-opacity:1;stroke:#ffffff;stroke-width:0.119396"
       d=""
       id="path48878"
       transform="scale(0.26458333)" />
    <path
       style="fill:#fceaac;fill-opacity:1;stroke:#ffffff;stroke-width:0.119396"
       d=""
       id="path48917"
       transform="scale(0.26458333)" />
    <path
       style="fill:#ffe680;fill-opacity:1;stroke:none;stroke-width:0.0631801"
       d="m 64.227399,184.74259 c -0.577847,-0.0664 -1.325248,-0.21128 -1.958583,-0.37967 -0.411139,-0.10931 -2.214351,-0.68143 -2.258986,-0.71672 -0.0089,-0.007 0.237355,-0.5362 0.547126,-1.176 1.103879,-2.27994 1.457434,-3.40764 1.58146,-5.04419 0.20062,-2.6473 -0.658231,-5.92634 -2.685558,-10.25329 -0.667446,-1.42453 -0.751306,-1.62111 -0.709433,-1.66298 0.117552,-0.11755 5.534213,-0.74357 8.216514,-0.94961 l 0.552828,-0.0425 v 0.18596 c 0,0.28974 0.224428,1.47328 0.632799,3.3371 0.685318,3.12781 0.846235,4.40363 0.844481,6.69547 -0.0013,1.80712 -0.08842,2.81705 -0.404751,4.69661 -0.202899,1.20556 -0.821103,3.79858 -1.00519,4.2162 -0.396544,0.8996 -1.606425,1.29423 -3.352707,1.09358 z"
       id="path52611" />
    <path
       style="fill:#ffe680;fill-opacity:1;stroke:none;stroke-width:0.0631801"
       d="m 78.557825,183.38183 c -0.570454,-0.11357 -1.303454,-0.31926 -1.920844,-0.53903 -0.400788,-0.14267 -2.151001,-0.86075 -2.192591,-0.89959 -0.0083,-0.008 0.280534,-0.51492 0.641737,-1.12716 1.287158,-2.18172 1.732014,-3.27662 1.98985,-4.89749 0.417072,-2.62192 -0.169942,-5.96036 -1.835548,-10.43901 -0.548359,-1.47447 -0.615813,-1.67727 -0.570647,-1.71556 0.126797,-0.10751 5.576554,-0.28716 8.266717,-0.2725 l 0.554451,0.003 -0.01525,0.18534 c -0.02376,0.28877 0.102835,1.48672 0.356962,3.37775 0.42647,3.17349 0.482203,4.4582 0.292481,6.74218 -0.149513,1.80092 -0.319173,2.80031 -0.788597,4.64759 -0.301095,1.18486 -1.129891,3.71843 -1.347611,4.11955 -0.468992,0.86404 -1.707164,1.15811 -3.431105,0.81491 z"
       id="path52611-2" />
    <path
       style="fill:#ffe680;fill-opacity:1;stroke:none;stroke-width:0.0547826"
       d="m 152.74728,188.51127 c -0.55116,-0.18064 -1.25387,-0.45752 -1.84149,-0.72554 -0.38148,-0.17398 -2.03867,-1.00486 -2.07606,-1.04088 -0.008,-0.008 0.32322,-0.33822 0.73473,-0.73572 1.46642,-1.41648 2.00441,-2.16109 2.40637,-3.33059 0.65021,-1.89182 0.37754,-4.48815 -0.85261,-8.11858 -0.405,-1.19521 -0.45286,-1.35827 -0.40489,-1.37934 0.13464,-0.0591 5.5155,0.7206 8.16219,1.18284 l 0.5455,0.0953 -0.032,0.13611 c -0.0498,0.21208 -0.0345,1.12965 0.0426,2.58717 0.12967,2.446 0.0671,3.41661 -0.32838,5.0937 -0.3115,1.32247 -0.57013,2.04171 -1.20108,3.34513 -0.40469,0.83602 -1.45211,2.59266 -1.70307,2.85626 -0.54063,0.5678 -1.7863,0.58014 -3.45188,0.0341 z"
       id="path52611-0"
       sodipodi:nodetypes="sscssssscsscssss" />
    <path
       style="fill:#ffe680;fill-opacity:1;stroke:none;stroke-width:0.0547826"
       d="m 166.88803,189.86034 c -0.56946,-0.1101 -1.30136,-0.29657 -1.91798,-0.48872 -0.40029,-0.12475 -2.14864,-0.74109 -2.19026,-0.77215 -0.008,-0.005 0.27821,-0.37611 0.63661,-0.8221 1.27708,-1.58929 1.71737,-2.39552 1.9694,-3.60623 0.40767,-1.95845 -0.18861,-4.50006 -1.86462,-7.94741 -0.55178,-1.13495 -0.61973,-1.29071 -0.57478,-1.31763 0.12615,-0.0757 5.56233,0.0228 8.24613,0.14926 l 0.55312,0.0261 -0.0143,0.13905 c -0.0227,0.21666 0.10731,1.12508 0.36694,2.56139 0.43561,2.41038 0.49533,3.38117 0.31339,5.09463 -0.14303,1.35112 -0.30942,2.09711 -0.77182,3.4694 -0.29659,0.88021 -1.1153,2.75439 -1.3312,3.0474 -0.46511,0.63116 -1.69938,0.79971 -3.42031,0.46705 z"
       id="path52611-0-8"
       sodipodi:nodetypes="sscssssscsscssss" />
    <ellipse
       style="fill:#28170b;fill-opacity:1;stroke:none;stroke-width:0.264583"
       id="path44679-2"
       cx="-90.06662"
       cy="148.88078"
       rx="4.6612625"
       ry="3.6621718"
       transform="rotate(-39.474595)" />
    <path
       style="fill:#ffdd55;fill-opacity:1;stroke:none;stroke-width:0.25272"
       d="m 167.34431,189.82686 c -1.47242,-0.32611 -4.16989,-1.18872 -4.16989,-1.33346 0,-0.0917 0.29313,-0.55851 0.65139,-1.03725 0.96134,-1.28461 1.54099,-2.51005 1.73295,-3.66362 0.237,-1.42417 -0.39313,-4.21436 -1.48589,-6.57948 -0.69831,-1.51141 -0.83367,-2.01461 -0.5871,-2.18251 0.2909,-0.19807 7.77106,-0.009 7.9989,0.20242 0.25183,0.23343 0.77746,4.49723 0.77646,6.29834 -0.001,2.40867 -0.26094,3.6447 -1.27926,6.0908 -0.63314,1.52088 -0.89464,1.8774 -1.54269,2.10332 -0.79846,0.27834 -1.20687,0.29812 -2.09487,0.10144 z"
       id="path76333" />
    <path
       style="fill:#ffdd55;fill-opacity:1;stroke:none;stroke-width:0.25272"
       d="m 76.870384,182.72005 c -1.11197,-0.3835 -2.015921,-0.80785 -2.008778,-0.94301 0.0071,-0.13515 0.513157,-1.25855 1.124474,-2.49644 1.003316,-2.03167 1.121791,-2.46623 1.217367,-4.46528 0.120721,-2.52498 -0.296003,-4.77149 -1.59534,-8.60028 l -0.823801,-2.42751 2.661854,-0.16287 c 3.584683,-0.21933 5.868595,-0.20522 5.868595,0.0363 0,0.10952 0.169678,1.55951 0.377061,3.22218 0.663181,5.31696 0.421687,8.72616 -0.921258,13.0055 -1.182558,3.76827 -2.019372,4.16984 -5.900174,2.83143 z"
       id="path76372" />
    <path
       style="fill:#fcdf7d;fill-opacity:1;stroke:none;stroke-width:0.12636"
       d="m 78.386706,183.11531 c -1.109462,-0.2939 -2.993557,-0.97593 -3.28531,-1.18926 -0.203687,-0.14894 -0.152919,-0.30544 0.669565,-2.06401 1.140219,-2.43793 1.266658,-2.82592 1.42626,-4.37657 0.254206,-2.46977 -0.157588,-5.00575 -1.467112,-9.03502 -0.459602,-1.41415 -0.817525,-2.58672 -0.795385,-2.60572 0.07936,-0.0681 5.374338,-0.32054 6.674167,-0.31824 0.729732,0.001 1.397852,0.0475 1.484712,0.10263 0.191207,0.12141 0.60003,3.25467 0.814922,6.24564 0.256612,3.57163 -0.156183,6.831 -1.301231,10.27432 -1.016164,3.05576 -1.800818,3.60721 -4.220588,2.96623 z"
       id="path78277" />
    <path
       style="fill:#fcdf7d;fill-opacity:1;stroke:none;stroke-width:0.12636"
       d="m 166.58615,189.56556 c -1.33228,-0.34237 -3.18091,-0.93787 -3.30895,-1.06591 -0.0336,-0.0336 0.27818,-0.56322 0.69276,-1.17702 1.68923,-2.50095 1.94566,-3.63336 1.4138,-6.24326 -0.27862,-1.36719 -0.65523,-2.49247 -1.40484,-4.19747 -0.26873,-0.61123 -0.48859,-1.28803 -0.48859,-1.50401 v -0.39268 l 3.77643,0.0703 c 2.32832,0.0434 3.87437,0.12273 4.03181,0.20699 0.19161,0.10255 0.28919,0.35004 0.39089,0.99142 0.51882,3.27204 0.64062,6.02566 0.34193,7.73048 -0.32613,1.86143 -1.36679,4.61242 -1.99964,5.28606 -0.2726,0.29018 -1.30499,0.6688 -1.79426,0.65804 -0.14376,-0.003 -0.88686,-0.16648 -1.65134,-0.36295 z"
       id="path78316" />
    <path
       style="fill:#fcdf7d;fill-opacity:1;stroke:none;stroke-width:0.12636"
       d="m 169.9347,175.01747 c -1.00773,-0.0486 -2.97116,-0.0955 -4.36321,-0.1042 -4.25472,-0.0267 -9.06118,-0.75882 -27.47957,-4.18575 -28.54841,-5.31172 -35.80941,-6.29693 -50.449327,-6.84517 -2.276063,-0.0852 -4.138298,-0.19599 -4.138298,-0.24612 0,-0.21838 -1.919015,-0.2586 -5.142807,-0.1078 -2.310648,0.10809 -3.521252,0.21252 -3.621103,0.31237 -0.08631,0.0863 -0.765871,0.18742 -1.600385,0.23813 -0.797711,0.0485 -2.360181,0.16727 -3.472151,0.264 -1.11197,0.0967 -2.817834,0.24092 -3.790807,0.32042 -0.972974,0.0795 -2.934716,0.28302 -4.359429,0.45226 -2.09981,0.24943 -2.626278,0.35104 -2.779924,0.53655 -0.126897,0.15321 -0.586279,0.30121 -1.389962,0.4478 -3.474291,0.63371 -7.45064,1.613 -11.435601,2.81635 -3.871807,1.16917 -5.695921,1.96021 -8.971576,3.89059 -0.903478,0.53242 -2.169266,1.22653 -2.812868,1.54246 l -1.170185,0.57441 -1.609741,-0.0118 c -1.882661,-0.0138 -2.683804,-0.11 -2.683804,-0.32211 0,-0.29267 2.297213,-1.98845 9.79292,-7.22905 9.893448,-6.91697 11.619179,-7.94909 15.383076,-9.2003 4.335187,-1.44113 8.475503,-2.26951 14.374759,-2.87605 2.497603,-0.2568 12.902282,-0.2134 16.174111,0.0675 10.019311,0.86008 16.442762,1.91125 35.380862,5.78992 22.46402,4.60081 28.45163,5.6978 32.98926,6.04394 0.93314,0.0712 4.61945,0.12957 8.19181,0.12973 l 6.49517,2.6e-4 1.64603,-0.45378 c 3.20944,-0.88478 5.59503,-1.92317 7.22394,-3.14441 2.70027,-2.02448 4.20428,-4.24706 5.5009,-8.12905 l 0.62278,-1.86456 0.0177,-5.619 c 0.0197,-6.25669 0.004,-6.45344 -0.90151,-10.94645 -0.64193,-3.18698 -1.85072,-7.89416 -2.39442,-9.32421 -0.11828,-0.31107 -0.11181,-0.31504 0.41261,-0.25397 0.29302,0.0341 1.80611,0.1463 3.3624,0.24929 1.72904,0.11441 2.89991,0.24556 3.01029,0.33717 0.51688,0.42897 0.93301,1.72465 1.98124,6.16894 1.24441,5.27603 1.85334,8.38815 2.37351,12.13059 0.22965,1.65214 0.22615,13.34493 -0.004,14.97369 -0.2666,1.88286 -1.23188,4.39466 -2.43791,6.3438 -0.79704,1.28815 -2.81798,3.40803 -4.00773,4.20391 -1.76138,1.1783 -3.6825,1.92945 -6.60288,2.5817 -1.418,0.3167 -3.93389,0.59808 -4.97603,0.55651 -0.27799,-0.0111 -1.32994,-0.0599 -2.33766,-0.10848 z"
       id="path78355" />
  </g>
</svg>
